<svg width="200" height="195" viewBox="0 0 200 195" fill="none" xmlns="http://www.w3.org/2000/svg">
<path d="M84.6143 2.85696C94.5178 -0.95232 105.482 -0.95232 115.386 2.85696L186.271 30.1141C194.543 33.2998 200 41.257 200 50.1141V144.771C200.001 149.102 198.689 153.331 196.238 156.901C193.788 160.471 190.313 163.215 186.271 164.771L115.386 192.043C105.482 195.852 94.5178 195.852 84.6143 192.043L13.7429 164.771C9.69897 163.217 6.22099 160.474 3.76759 156.904C1.31418 153.334 0.000573464 149.103 0 144.771V50.1141C0.000573464 45.782 1.31418 41.5518 3.76759 37.9813C6.22099 34.4109 9.69897 31.6679 13.7429 30.1141L84.6143 2.85696V2.85696ZM110.257 16.1855C103.655 13.646 96.3452 13.646 89.7429 16.1855L69.9714 23.7998L149.829 54.0284L177.657 42.1141L110.257 16.1855V16.1855ZM185.714 54.1855L107.143 87.8712V179.7C108.2 179.428 109.229 179.1 110.257 178.7L181.143 151.443C182.49 150.923 183.648 150.007 184.464 148.816C185.28 147.625 185.716 146.215 185.714 144.771V54.1998V54.1855ZM92.8571 179.7V87.8712L14.2857 54.1998V144.771C14.2842 146.215 14.7202 147.625 15.5363 148.816C16.3524 150.007 17.5102 150.923 18.8571 151.443L89.7429 178.7C90.7714 179.1 91.8 179.428 92.8571 179.7ZM22.3429 42.1141L100 75.3998L130.914 62.1427L49.9571 31.4855L22.3429 42.1141Z" fill="#101010"/>
</svg>
