<svg width="233" height="169" viewBox="0 0 233 169" fill="none" xmlns="http://www.w3.org/2000/svg">
<path d="M180.045 153.156C188.836 153.156 195.932 146.079 195.932 137.312C195.932 128.546 188.836 121.469 180.045 121.469C171.255 121.469 164.159 128.546 164.159 137.312C164.159 146.079 171.255 153.156 180.045 153.156ZM195.932 58.0938H169.455V84.5H216.69L195.932 58.0938ZM52.9545 153.156C61.745 153.156 68.8409 146.079 68.8409 137.312C68.8409 128.546 61.745 121.469 52.9545 121.469C44.1641 121.469 37.0682 128.546 37.0682 137.312C37.0682 146.079 44.1641 153.156 52.9545 153.156ZM201.227 42.25L233 84.5V137.312H211.818C211.818 154.846 197.626 169 180.045 169C162.465 169 148.273 154.846 148.273 137.312H84.7273C84.7273 154.846 70.5355 169 52.9545 169C35.3736 169 21.1818 154.846 21.1818 137.312H0V21.125C0 9.40062 9.42591 0 21.1818 0H169.455V42.25H201.227ZM21.1818 21.125V116.188H29.2309C35.0559 109.744 43.5286 105.625 52.9545 105.625C62.3805 105.625 70.8532 109.744 76.6782 116.188H148.273V21.125H21.1818ZM95.3182 31.6875L132.386 68.6562L95.3182 105.625V79.2188H42.3636V58.0938H95.3182V31.6875Z" fill="#101010"/>
</svg>
