<svg width="200" height="200" viewBox="0 0 200 200" fill="none" xmlns="http://www.w3.org/2000/svg">
<path d="M175 162.5H156.25C154.557 162.5 153.092 161.882 151.855 160.645C150.618 159.408 150 157.943 150 156.25V93.75C150 92.0573 150.618 90.5924 151.855 89.3555C153.092 88.1185 154.557 87.5 156.25 87.5H162.5C162.5 68.2292 157.129 52.9948 146.387 41.7969C135.645 30.599 120.182 25 100 25C79.8177 25 64.3555 30.599 53.6133 41.7969C42.8711 52.9948 37.5 68.2292 37.5 87.5H43.75C45.4427 87.5 46.9076 88.1185 48.1445 89.3555C49.3815 90.5924 50 92.0573 50 93.75V156.25C50 157.943 49.3815 159.408 48.1445 160.645C46.9076 161.882 45.4427 162.5 43.75 162.5H37.5C37.5 169.401 39.9414 175.293 44.8242 180.176C49.707 185.059 55.599 187.5 62.5 187.5H75C75 183.984 76.2044 181.022 78.6133 178.613C81.0221 176.204 83.9844 175 87.5 175H100C103.516 175 106.478 176.204 108.887 178.613C111.296 181.022 112.5 183.952 112.5 187.402C112.5 190.853 111.296 193.815 108.887 196.289C106.478 198.763 103.516 200 100 200H62.5C52.0833 200 43.2292 196.354 35.9375 189.062C28.6458 181.771 25 172.917 25 162.5C18.099 162.5 12.207 158.854 7.32422 151.562C2.44141 144.271 0 135.417 0 125C0 118.229 1.13932 111.979 3.41797 106.25C5.69661 100.521 8.72396 96.0286 12.5 92.7734V87.5C12.5 75.651 14.8112 64.3229 19.4336 53.5156C24.056 42.7083 30.2734 33.3984 38.0859 25.5859C45.8984 17.7734 55.2083 11.556 66.0156 6.93359C76.8229 2.3112 88.151 0 100 0C111.849 0 123.177 2.3112 133.984 6.93359C144.792 11.556 154.102 17.7734 161.914 25.5859C169.727 33.3984 175.944 42.7083 180.566 53.5156C185.189 64.3229 187.5 75.651 187.5 87.5V92.7734C191.276 96.0286 194.303 100.521 196.582 106.25C198.861 111.979 200 118.229 200 125C200 135.417 197.559 144.271 192.676 151.562C187.793 158.854 181.901 162.5 175 162.5Z" fill="#101010"/>
</svg>
